<mxfile host="app.diagrams.net" agent="Mozilla/5.0 (Windows NT 10.0; Win64; x64) AppleWebKit/537.36 (KHTML, like Gecko) Chrome/135.0.0.0 Safari/537.36 Edg/135.0.0.0" version="26.1.3">
  <diagram name="Página-1" id="q0ufyth5Kb9TkijC-UrE">
    <mxGraphModel dx="1246" dy="681" grid="1" gridSize="10" guides="1" tooltips="1" connect="1" arrows="1" fold="1" page="1" pageScale="1" pageWidth="827" pageHeight="1169" math="0" shadow="0">
      <root>
        <mxCell id="0" />
        <mxCell id="1" parent="0" />
        <mxCell id="zrFuqKw6G1F2x_8jZqnr-42" style="edgeStyle=orthogonalEdgeStyle;rounded=0;orthogonalLoop=1;jettySize=auto;html=1;exitX=0.5;exitY=1;exitDx=0;exitDy=0;entryX=0.5;entryY=0;entryDx=0;entryDy=0;" edge="1" parent="1" source="zrFuqKw6G1F2x_8jZqnr-37" target="zrFuqKw6G1F2x_8jZqnr-40">
          <mxGeometry relative="1" as="geometry" />
        </mxCell>
        <mxCell id="zrFuqKw6G1F2x_8jZqnr-37" value="Se dirigir ao atendente" style="rounded=1;whiteSpace=wrap;html=1;" vertex="1" parent="1">
          <mxGeometry x="160" y="90" width="120" height="60" as="geometry" />
        </mxCell>
        <mxCell id="zrFuqKw6G1F2x_8jZqnr-38" value="Apresentar o código" style="rounded=1;whiteSpace=wrap;html=1;" vertex="1" parent="1">
          <mxGeometry x="160" y="290" width="120" height="60" as="geometry" />
        </mxCell>
        <mxCell id="zrFuqKw6G1F2x_8jZqnr-41" style="edgeStyle=orthogonalEdgeStyle;rounded=0;orthogonalLoop=1;jettySize=auto;html=1;exitX=0.5;exitY=1;exitDx=0;exitDy=0;entryX=0.5;entryY=0;entryDx=0;entryDy=0;" edge="1" parent="1" source="zrFuqKw6G1F2x_8jZqnr-40" target="zrFuqKw6G1F2x_8jZqnr-38">
          <mxGeometry relative="1" as="geometry" />
        </mxCell>
        <mxCell id="zrFuqKw6G1F2x_8jZqnr-40" value="Lembrou do código?" style="rhombus;whiteSpace=wrap;html=1;" vertex="1" parent="1">
          <mxGeometry x="165" y="180" width="110" height="80" as="geometry" />
        </mxCell>
        <mxCell id="zrFuqKw6G1F2x_8jZqnr-43" value="[Sim]" style="text;html=1;align=center;verticalAlign=middle;whiteSpace=wrap;rounded=0;" vertex="1" parent="1">
          <mxGeometry x="170" y="250" width="60" height="30" as="geometry" />
        </mxCell>
        <mxCell id="zrFuqKw6G1F2x_8jZqnr-44" value="Dizer o nome" style="rounded=1;whiteSpace=wrap;html=1;" vertex="1" parent="1">
          <mxGeometry x="294" y="260" width="120" height="60" as="geometry" />
        </mxCell>
        <mxCell id="zrFuqKw6G1F2x_8jZqnr-46" value="" style="endArrow=classic;html=1;rounded=0;entryX=0.5;entryY=0;entryDx=0;entryDy=0;exitX=1;exitY=0.5;exitDx=0;exitDy=0;" edge="1" parent="1" source="zrFuqKw6G1F2x_8jZqnr-40" target="zrFuqKw6G1F2x_8jZqnr-44">
          <mxGeometry width="50" height="50" relative="1" as="geometry">
            <mxPoint x="310" y="250" as="sourcePoint" />
            <mxPoint x="360" y="200" as="targetPoint" />
          </mxGeometry>
        </mxCell>
        <mxCell id="zrFuqKw6G1F2x_8jZqnr-47" value="[Não]" style="text;html=1;align=center;verticalAlign=middle;whiteSpace=wrap;rounded=0;" vertex="1" parent="1">
          <mxGeometry x="280" y="210" width="60" height="30" as="geometry" />
        </mxCell>
        <mxCell id="zrFuqKw6G1F2x_8jZqnr-48" value="" style="line;strokeWidth=7;html=1;perimeter=backbonePerimeter;points=[];outlineConnect=0;" vertex="1" parent="1">
          <mxGeometry x="190" y="390" width="210" height="10" as="geometry" />
        </mxCell>
        <mxCell id="zrFuqKw6G1F2x_8jZqnr-50" value="" style="endArrow=classic;html=1;rounded=0;exitX=0.5;exitY=1;exitDx=0;exitDy=0;" edge="1" parent="1" source="zrFuqKw6G1F2x_8jZqnr-44" target="zrFuqKw6G1F2x_8jZqnr-48">
          <mxGeometry width="50" height="50" relative="1" as="geometry">
            <mxPoint x="374" y="310" as="sourcePoint" />
            <mxPoint x="334" y="410" as="targetPoint" />
          </mxGeometry>
        </mxCell>
        <mxCell id="zrFuqKw6G1F2x_8jZqnr-52" value="" style="endArrow=classic;html=1;rounded=0;exitX=0.5;exitY=1;exitDx=0;exitDy=0;" edge="1" parent="1" source="zrFuqKw6G1F2x_8jZqnr-38" target="zrFuqKw6G1F2x_8jZqnr-48">
          <mxGeometry width="50" height="50" relative="1" as="geometry">
            <mxPoint x="120" y="420" as="sourcePoint" />
            <mxPoint x="220" y="380" as="targetPoint" />
          </mxGeometry>
        </mxCell>
        <mxCell id="zrFuqKw6G1F2x_8jZqnr-53" value="" style="endArrow=classic;html=1;rounded=0;entryX=0;entryY=0.5;entryDx=0;entryDy=0;" edge="1" parent="1" target="zrFuqKw6G1F2x_8jZqnr-54">
          <mxGeometry width="50" height="50" relative="1" as="geometry">
            <mxPoint x="260.0000000000002" y="390.0014285714287" as="sourcePoint" />
            <mxPoint x="560" y="270" as="targetPoint" />
            <Array as="points">
              <mxPoint x="260" y="462.93" />
              <mxPoint x="430" y="460" />
              <mxPoint x="450" y="460" />
              <mxPoint x="450" y="60" />
            </Array>
          </mxGeometry>
        </mxCell>
        <mxCell id="zrFuqKw6G1F2x_8jZqnr-57" value="" style="edgeStyle=orthogonalEdgeStyle;rounded=0;orthogonalLoop=1;jettySize=auto;html=1;" edge="1" parent="1" source="zrFuqKw6G1F2x_8jZqnr-54">
          <mxGeometry relative="1" as="geometry">
            <mxPoint x="599.9999999999998" y="140" as="targetPoint" />
          </mxGeometry>
        </mxCell>
        <mxCell id="zrFuqKw6G1F2x_8jZqnr-54" value="Pesquisar o socio" style="rounded=1;whiteSpace=wrap;html=1;" vertex="1" parent="1">
          <mxGeometry x="540" y="30" width="120" height="60" as="geometry" />
        </mxCell>
        <mxCell id="zrFuqKw6G1F2x_8jZqnr-60" style="edgeStyle=orthogonalEdgeStyle;rounded=0;orthogonalLoop=1;jettySize=auto;html=1;exitX=0.5;exitY=1;exitDx=0;exitDy=0;" edge="1" parent="1" source="zrFuqKw6G1F2x_8jZqnr-58" target="zrFuqKw6G1F2x_8jZqnr-59">
          <mxGeometry relative="1" as="geometry" />
        </mxCell>
        <mxCell id="zrFuqKw6G1F2x_8jZqnr-63" style="edgeStyle=orthogonalEdgeStyle;rounded=0;orthogonalLoop=1;jettySize=auto;html=1;exitX=1;exitY=0.5;exitDx=0;exitDy=0;entryX=0;entryY=0.5;entryDx=0;entryDy=0;" edge="1" parent="1" source="zrFuqKw6G1F2x_8jZqnr-58" target="zrFuqKw6G1F2x_8jZqnr-62">
          <mxGeometry relative="1" as="geometry" />
        </mxCell>
        <mxCell id="zrFuqKw6G1F2x_8jZqnr-58" value="Socio registrado?" style="rhombus;whiteSpace=wrap;html=1;" vertex="1" parent="1">
          <mxGeometry x="540" y="140" width="120" height="110" as="geometry" />
        </mxCell>
        <mxCell id="zrFuqKw6G1F2x_8jZqnr-66" style="edgeStyle=orthogonalEdgeStyle;rounded=0;orthogonalLoop=1;jettySize=auto;html=1;exitX=0.5;exitY=1;exitDx=0;exitDy=0;entryX=0.5;entryY=0;entryDx=0;entryDy=0;" edge="1" parent="1" source="zrFuqKw6G1F2x_8jZqnr-59" target="zrFuqKw6G1F2x_8jZqnr-65">
          <mxGeometry relative="1" as="geometry" />
        </mxCell>
        <mxCell id="zrFuqKw6G1F2x_8jZqnr-59" value="Locação recusada" style="rounded=1;whiteSpace=wrap;html=1;" vertex="1" parent="1">
          <mxGeometry x="540" y="330" width="120" height="60" as="geometry" />
        </mxCell>
        <mxCell id="zrFuqKw6G1F2x_8jZqnr-61" value="[Não]" style="text;html=1;align=center;verticalAlign=middle;whiteSpace=wrap;rounded=0;" vertex="1" parent="1">
          <mxGeometry x="550" y="260" width="60" height="30" as="geometry" />
        </mxCell>
        <mxCell id="zrFuqKw6G1F2x_8jZqnr-62" value="" style="rounded=1;whiteSpace=wrap;html=1;" vertex="1" parent="1">
          <mxGeometry x="750" y="165" width="120" height="60" as="geometry" />
        </mxCell>
        <mxCell id="zrFuqKw6G1F2x_8jZqnr-64" value="[Sim]" style="text;html=1;align=center;verticalAlign=middle;whiteSpace=wrap;rounded=0;" vertex="1" parent="1">
          <mxGeometry x="670" y="170" width="60" height="30" as="geometry" />
        </mxCell>
        <mxCell id="zrFuqKw6G1F2x_8jZqnr-65" value="" style="ellipse;html=1;shape=endState;fillColor=#000000;strokeColor=#ff0000;" vertex="1" parent="1">
          <mxGeometry x="585" y="430" width="30" height="30" as="geometry" />
        </mxCell>
      </root>
    </mxGraphModel>
  </diagram>
</mxfile>
